<svg width="223" height="160" viewBox="0 0 223 160" fill="none" xmlns="http://www.w3.org/2000/svg">
<g clip-path="url(#clip0)">
<path d="M0 159.892H35.8702" stroke="#3F3D56" stroke-miterlimit="10"/>
<path d="M207.572 27.5569H56.7003C54.3853 27.5569 52.5087 29.4303 52.5087 31.7411V131.01C52.5087 133.321 54.3853 135.194 56.7003 135.194H207.572C209.887 135.194 211.764 133.321 211.764 131.01V31.7411C211.764 29.4303 209.887 27.5569 207.572 27.5569Z" fill="#F2F2F2"/>
<path d="M202.71 20.7622H51.8383C49.5234 20.7622 47.6468 22.6355 47.6468 24.9464V124.215C47.6468 126.526 49.5234 128.399 51.8383 128.399H202.71C205.025 128.399 206.902 126.526 206.902 124.215V24.9464C206.902 22.6355 205.025 20.7622 202.71 20.7622Z" stroke="#3F3D56" stroke-miterlimit="10"/>
<path d="M47.6468 31.0816H206.902" stroke="#3F3D56" stroke-miterlimit="10"/>
<path opacity="0.3" d="M184.733 55.275H144.365C143.519 55.275 142.832 55.96 142.832 56.8049V60.432C142.832 61.2769 143.519 61.9619 144.365 61.9619H184.733C185.579 61.9619 186.266 61.2769 186.266 60.432V56.8049C186.266 55.96 185.579 55.275 184.733 55.275Z" fill="#FFD500"/>
<path opacity="0.3" d="M193.052 73.8257H136.046C135.199 73.8257 134.513 74.5106 134.513 75.3556V77.6884C134.513 78.5334 135.199 79.2183 136.046 79.2183H193.052C193.899 79.2183 194.585 78.5334 194.585 77.6884V75.3556C194.585 74.5106 193.899 73.8257 193.052 73.8257Z" fill="#FFD500"/>
<path opacity="0.3" d="M193.052 88.4937H136.046C135.199 88.4937 134.513 89.1786 134.513 90.0235V92.3564C134.513 93.2013 135.199 93.8863 136.046 93.8863H193.052C193.899 93.8863 194.585 93.2013 194.585 92.3564V90.0235C194.585 89.1786 193.899 88.4937 193.052 88.4937Z" fill="#FFD500"/>
<path opacity="0.3" d="M193.052 103.162H136.046C135.199 103.162 134.513 103.847 134.513 104.692V107.024C134.513 107.869 135.199 108.554 136.046 108.554H193.052C193.899 108.554 194.585 107.869 194.585 107.024V104.692C194.585 103.847 193.899 103.162 193.052 103.162Z" fill="#FFD500"/>
<path d="M186.894 53.118H146.526C145.679 53.118 144.993 53.803 144.993 54.6479V58.275C144.993 59.1199 145.679 59.8049 146.526 59.8049H186.894C187.74 59.8049 188.426 59.1199 188.426 58.275V54.6479C188.426 53.803 187.74 53.118 186.894 53.118Z" stroke="#3F3D56" stroke-miterlimit="10"/>
<path d="M195.213 71.6686H138.207C137.36 71.6686 136.674 72.3536 136.674 73.1985V75.5314C136.674 76.3763 137.36 77.0613 138.207 77.0613H195.213C196.059 77.0613 196.746 76.3763 196.746 75.5314V73.1985C196.746 72.3536 196.059 71.6686 195.213 71.6686Z" stroke="#3F3D56" stroke-miterlimit="10"/>
<path d="M195.213 86.3367H138.207C137.36 86.3367 136.674 87.0216 136.674 87.8666V90.1994C136.674 91.0443 137.36 91.7293 138.207 91.7293H195.213C196.059 91.7293 196.746 91.0443 196.746 90.1994V87.8666C196.746 87.0216 196.059 86.3367 195.213 86.3367Z" stroke="#3F3D56" stroke-miterlimit="10"/>
<path d="M195.213 101.005H138.207C137.36 101.005 136.674 101.69 136.674 102.535V104.867C136.674 105.712 137.36 106.397 138.207 106.397H195.213C196.059 106.397 196.746 105.712 196.746 104.867V102.535C196.746 101.69 196.059 101.005 195.213 101.005Z" stroke="#3F3D56" stroke-miterlimit="10"/>
<path opacity="0.3" d="M59.7476 30.469C61.5377 30.469 62.9888 29.0203 62.9888 27.2334C62.9888 25.4464 61.5377 23.9978 59.7476 23.9978C57.9575 23.9978 56.5063 25.4464 56.5063 27.2334C56.5063 29.0203 57.9575 30.469 59.7476 30.469Z" fill="#FFD500"/>
<path opacity="0.3" d="M68.8232 30.469C70.6133 30.469 72.0644 29.0203 72.0644 27.2334C72.0644 25.4464 70.6133 23.9978 68.8232 23.9978C67.033 23.9978 65.5819 25.4464 65.5819 27.2334C65.5819 29.0203 67.033 30.469 68.8232 30.469Z" fill="#FFD500"/>
<path opacity="0.3" d="M77.8987 30.469C79.6889 30.469 81.14 29.0203 81.14 27.2334C81.14 25.4464 79.6889 23.9978 77.8987 23.9978C76.1086 23.9978 74.6575 25.4464 74.6575 27.2334C74.6575 29.0203 76.1086 30.469 77.8987 30.469Z" fill="#FFD500"/>
<path d="M61.0441 29.1747C62.8342 29.1747 64.2853 27.7261 64.2853 25.9391C64.2853 24.1522 62.8342 22.7036 61.0441 22.7036C59.254 22.7036 57.8028 24.1522 57.8028 25.9391C57.8028 27.7261 59.254 29.1747 61.0441 29.1747Z" stroke="#3F3D56" stroke-miterlimit="10"/>
<path d="M70.1197 29.1747C71.9098 29.1747 73.361 27.7261 73.361 25.9391C73.361 24.1522 71.9098 22.7036 70.1197 22.7036C68.3296 22.7036 66.8784 24.1522 66.8784 25.9391C66.8784 27.7261 68.3296 29.1747 70.1197 29.1747Z" stroke="#3F3D56" stroke-miterlimit="10"/>
<path d="M79.1953 29.1747C80.9854 29.1747 82.4365 27.7261 82.4365 25.9391C82.4365 24.1522 80.9854 22.7036 79.1953 22.7036C77.4051 22.7036 75.954 24.1522 75.954 25.9391C75.954 27.7261 77.4051 29.1747 79.1953 29.1747Z" stroke="#3F3D56" stroke-miterlimit="10"/>
<path d="M97.9631 123.869C97.4204 121.374 97.2766 117.966 97.4591 115.595C97.4591 115.595 94.7152 103.561 92.5561 102.439L92.5555 102.439C92.5224 102.482 91.4746 103.853 91.3417 108.096C91.2068 112.406 89.6779 115.235 89.6779 115.235C89.6779 115.235 90.1727 120.608 89.8898 123.869L97.9631 123.869Z" fill="#FFD500"/>
<path d="M117.924 47.294H68.1256C67.451 47.294 66.7831 47.4266 66.1598 47.6843C65.5366 47.942 64.9704 48.3197 64.4934 48.7959C64.0164 49.272 63.638 49.8373 63.3799 50.4594C63.1217 51.0815 62.9889 51.7483 62.9889 52.4217V118.742C62.9889 119.415 63.1217 120.082 63.3799 120.704C63.638 121.326 64.0164 121.891 64.4934 122.368C64.9704 122.844 65.5366 123.221 66.1598 123.479C66.7831 123.737 67.451 123.869 68.1256 123.869H85.5972C85.0137 121.454 84.2883 117.681 85.0229 115.057L85.0226 115.056L85.0231 115.057C85.0574 114.934 85.0938 114.814 85.1346 114.696C85.6392 112.994 85.8074 111.21 85.6298 109.443C85.9542 107.934 85.9542 106.373 85.6298 104.863C85.0901 102.349 84.7122 99.8794 84.7122 99.8794C84.7122 99.8794 84.4147 96.557 84.6745 94.5203C84.6802 94.4756 84.6869 94.4332 84.6932 94.3897C84.6015 94.3689 84.5501 94.3569 84.5501 94.3569C84.5501 94.3569 85.3148 90.8996 85.5846 88.6995C85.6483 88.1801 85.7322 87.5217 85.823 86.8197C85.5738 86.7783 85.3286 86.7163 85.0899 86.6341C82.661 85.781 81.8963 78.0582 81.8963 78.0582V75.6111C81.8963 75.6111 81.0867 71.862 83.9204 70.2007C86.6491 68.6009 87.7386 68.1631 87.8156 68.1328C87.8364 68.118 87.8567 68.1045 87.8779 68.0881C88.1863 67.8465 88.4304 67.5329 88.5887 67.1749C88.5925 67.1132 88.5934 67.052 88.5914 66.9911C88.5453 66.1139 87.9336 65.3161 87.3531 64.62C86.8581 64.0263 86.363 63.4326 85.8679 62.8389C85.6983 62.662 85.5679 62.4514 85.4854 62.2209C85.454 62.0937 85.4404 61.9627 85.4449 61.8318C85.4446 61.7833 85.4448 61.7349 85.4458 61.6866C85.4539 61.2439 85.4659 60.8013 85.4819 60.3588C85.4959 59.9723 85.5934 59.4845 85.9726 59.405C86.1699 59.3637 86.431 59.4358 86.5352 59.2636C86.5702 59.1926 86.5792 59.1117 86.5605 59.0348C86.5592 59.0406 86.5589 59.0466 86.5572 59.0522C86.556 59.045 86.5547 59.0377 86.5534 59.0307C86.4753 58.7207 86.4283 58.4037 86.4128 58.0845C86.4086 57.9404 86.4292 57.7967 86.4738 57.6596C86.6935 57.0178 87.45 56.7545 88.1185 56.6334C88.787 56.5123 89.5374 56.4082 89.957 55.8748C90.0693 55.6976 90.1911 55.5267 90.3219 55.3627C90.5144 55.188 90.7509 55.069 91.006 55.0183C91.8359 54.8086 92.7124 54.8863 93.4923 55.2386C93.8157 55.3859 94.1405 55.5842 94.4952 55.5618C94.8637 55.5385 95.1784 55.2796 95.5422 55.2166C96.1297 55.1149 96.6915 55.5544 96.981 56.0748C97.1649 56.4058 97.2569 56.7799 97.2474 57.1583C97.2544 57.535 97.1182 57.9004 96.8662 58.181C96.6134 58.4487 96.2361 58.6327 96.1311 58.9854C96.0883 59.129 96.0982 59.2837 96.0604 59.4286C96.0557 59.4467 96.048 59.4637 96.0418 59.4812C96.0488 59.4902 96.0563 59.4987 96.0632 59.5077C96.5055 60.0895 96.8019 60.7685 96.9278 61.488C97.0537 62.2075 97.0054 62.9466 96.7869 63.6437C96.5684 64.3407 96.1861 64.9755 95.6718 65.495C95.1575 66.0146 94.5262 66.4038 93.8306 66.6301C93.8289 66.6756 93.8271 66.721 93.8273 66.7667C93.8143 67.0497 93.8624 67.3323 93.9682 67.5952C94.0741 67.8581 94.2353 68.0953 94.4409 68.2906L98.4487 69.9312C98.4487 69.9312 100.861 69.6393 101.732 73.2336C101.872 73.831 101.922 74.4458 101.881 75.0579C101.85 75.5999 101.923 76.554 102.542 77.7887C103.531 79.7644 103.306 84.2992 101.282 84.7482C99.3652 85.1735 98.6194 84.9949 98.5459 84.9748L98.5415 85.0542C98.5731 85.9051 98.8765 93.2443 99.978 94.1324C100.283 94.3779 100.224 94.5438 99.9744 94.6556L99.975 94.6563C99.975 94.6563 99.9771 94.7035 99.9818 94.7884C100.015 95.3251 100.185 97.3692 100.922 98.5323C101.777 99.8793 101.687 107.647 101.687 107.647L102.272 112.227C102.272 112.227 101.912 115.056 102.272 115.55C102.476 115.83 102.723 120.167 102.899 123.869H117.924C119.286 123.869 120.593 123.329 121.556 122.368C122.519 121.406 123.061 120.102 123.061 118.742V52.4217C123.061 51.7483 122.928 51.0815 122.67 50.4594C122.411 49.8373 122.033 49.272 121.556 48.7959C121.079 48.3197 120.513 47.942 119.89 47.6843C119.266 47.4266 118.598 47.294 117.924 47.294Z" fill="#FFD500"/>
<path d="M112.738 41.4699H62.9395C60.1026 41.4699 57.8028 43.7656 57.8028 46.5976V112.918C57.8028 115.75 60.1026 118.045 62.9395 118.045H112.738C115.575 118.045 117.874 115.75 117.874 112.918V46.5976C117.874 43.7656 115.575 41.4699 112.738 41.4699Z" stroke="#3F3D56" stroke-miterlimit="10"/>
<path d="M21.7866 69.3774C21.7866 69.3774 19.7718 68.7827 19.3396 69.4298C18.9075 70.0769 19.9288 74.768 19.9288 74.768L24.3685 75.0373L22.8191 71.1317L21.7866 69.3774Z" fill="#2F2E41"/>
<path d="M6.25442 107.9C6.25442 107.9 10.2941 116.753 7.18308 116.475C4.07209 116.197 2.86484 107.9 2.86484 107.9H6.25442Z" fill="#A0616A"/>
<path d="M32.6745 106.978C32.6745 106.978 30.9024 116.544 33.8533 115.522C36.8043 114.5 35.9633 106.159 35.9633 106.159L32.6745 106.978Z" fill="#A0616A"/>
<path d="M20.9271 67.1577C20.9271 67.1577 20.8807 71.6074 22.5987 71.8391C24.3167 72.0709 21.6236 74.4348 21.6236 74.4348L18.5591 75.0374L14.148 74.7129L12.1978 72.2099C12.1978 72.2099 15.6338 70.5877 14.148 65.5354L20.9271 67.1577Z" fill="#A0616A"/>
<path opacity="0.1" d="M20.9271 67.1577C20.9271 67.1577 20.8807 71.6074 22.5987 71.8391C24.3167 72.0709 21.6236 74.4348 21.6236 74.4348L18.5591 75.0374L14.148 74.7129L12.1978 72.2099C12.1978 72.2099 15.6338 70.5877 14.148 65.5354L20.9271 67.1577Z" fill="black"/>
<path d="M28.8207 104.795C28.8207 104.795 31.003 109.476 29.285 124.169C29.285 124.169 29.7958 129.361 29.3779 130.334C28.96 131.307 25.524 144.518 25.524 144.518C25.524 144.518 21.1129 145.491 20.5092 142.571C20.5092 142.571 21.1129 138.399 21.0664 137.75C21.02 137.101 22.0415 130.01 22.0415 130.01L19.952 116.29L18.3733 128.665C18.3733 128.665 18.3733 132.234 17.8626 133.022C17.3518 133.81 17.8626 149.662 17.8626 149.662C17.8626 149.662 19.302 152.073 17.1196 152.119C14.9373 152.165 12.9871 152.073 12.8014 150.543C12.6156 149.014 12.5228 147.484 12.0585 146.557C11.5941 145.63 10.9905 135.016 11.1298 131.307C11.2691 127.599 8.06525 108.549 9.08677 106.556C10.1083 104.563 28.8207 104.795 28.8207 104.795Z" fill="#2F2E41"/>
<path d="M18.5591 68.8263C21.6364 68.8263 24.131 66.3361 24.131 63.2642C24.131 60.1923 21.6364 57.7021 18.5591 57.7021C15.4818 57.7021 12.9872 60.1923 12.9872 63.2642C12.9872 66.3361 15.4818 68.8263 18.5591 68.8263Z" fill="#A0616A"/>
<path d="M12.9872 72.3027C12.9872 72.3027 16.3767 74.8056 21.2986 72.8125C21.2986 72.8125 22.9238 72.0245 22.7845 70.8194C22.6452 69.6143 26.174 80.5068 26.174 80.5068L29.7494 99.4644L29.5636 107.205C29.5636 107.205 27.9849 106.417 23.0631 108.178C18.1412 109.94 10.1083 106.185 10.1083 106.185L10.3869 86.3007L10.6655 74.7129L11.4084 72.1636C11.4084 72.1636 11.7799 71.4683 12.9872 72.3027Z" fill="#F2F2F2"/>
<path d="M21.082 69.1911C21.082 69.1911 21.9022 69.0581 22.6916 70.3096C23.4809 71.561 25.3382 72.349 25.3382 72.349C25.3382 72.349 29.8422 72.6271 30.4923 75.0374C31.1423 77.4476 32.7675 80.7386 33.5568 86.8105C34.3462 92.8825 35.9249 102.57 36.157 103.358C36.3892 104.146 35.832 106.556 36.4821 107.298C37.1321 108.039 31.8852 108.039 31.8852 108.039C31.8852 108.039 31.4209 104.239 31.0959 104.239C30.7708 104.239 30.8637 106.788 31.1887 108.642C31.5138 110.496 28.8207 108.642 28.8207 108.642C28.8207 108.642 26.7312 100.16 24.7346 92.5117C22.738 84.8638 21.5772 80.6458 21.9486 78.9309C22.3201 77.2159 23.3416 72.3027 22.5987 71.8392C21.8558 71.3756 21.082 69.1911 21.082 69.1911Z" fill="#2F2E41"/>
<path d="M14.386 69.187C14.386 69.187 13.1729 69.8461 10.1083 72.0246C7.04374 74.2031 4.95428 75.8717 4.95428 75.8717C4.95428 75.8717 3.74703 76.7987 3.00411 82.3145C2.26119 87.8303 0.589609 102.106 1.23967 103.914C1.88973 105.722 2.12189 106.788 1.88973 107.854C1.65756 108.92 6.76516 108.874 6.85802 108.642C6.95089 108.41 6.71872 104.192 6.95089 104.099C7.18305 104.007 8.43673 106.602 8.6689 108.781C8.90106 110.959 11.5942 112.674 12.1978 112.674C12.8014 112.674 15.9124 100.113 15.9588 91.5383C16.0053 82.9634 14.9373 75.7326 14.148 74.7129C13.3586 73.6932 14.386 69.187 14.386 69.187Z" fill="#2F2E41"/>
<path d="M22.5523 144.935C22.5523 144.935 22.9237 143.915 24.2238 144.239C25.524 144.564 26.4062 143.405 26.4062 143.405C26.4062 143.405 27.1027 143.312 26.6383 144.193C26.174 145.074 25.8026 145.676 25.8026 145.676C25.8026 145.676 28.5885 152.026 26.7776 153.556C24.9668 155.086 22.8773 154.159 22.8773 154.159C22.8773 154.159 20.8343 152.722 20.9271 148.921C20.9271 148.921 20.8343 147.716 19.7199 145.769C18.6055 143.822 17.7697 140.856 19.1163 140.3C20.4628 139.743 20.8094 139.723 20.8094 139.723C20.8094 139.723 20.1793 142.6 21.8069 143.605L22.5523 144.935Z" fill="#3F3D56"/>
<path d="M13.9158 152.119C13.9158 152.119 12.8014 150.033 14.6587 149.802C16.516 149.57 18.5126 149.431 18.4198 150.404C18.3269 151.378 18.0947 152.861 18.0947 152.861L18.4198 153.927C18.4198 153.927 18.5126 156.569 18.8377 156.893C19.1627 157.218 20.9271 159.999 17.1661 159.999C13.405 159.999 12.2906 159.582 12.6157 158.701C12.9407 157.82 13.0336 153.463 13.0336 153.463L13.9158 152.119Z" fill="#3F3D56"/>
<path d="M16.7946 58.8145C16.7946 58.8145 19.3949 59.5098 20.7414 59.7879C22.088 60.066 21.9487 59.278 21.9487 59.278C21.9487 59.278 23.7131 59.5098 23.6202 59.3244C23.5274 59.139 24.3632 58.1656 23.3881 57.0532C22.413 55.9408 22.6916 55.1064 22.6916 55.1064H21.8558L21.6236 54.782H20.3235C20.3235 54.782 19.3484 54.4112 16.7946 54.782C14.2408 55.1528 10.7584 55.2455 10.4798 56.7751C10.2012 58.3047 8.76177 60.2051 9.27253 61.0857C9.78329 61.9664 12.7085 65.5818 12.9871 67.1114C13.2657 68.641 14.5666 68.9808 14.5198 68.0229C14.473 67.065 13.1729 63.7277 14.2873 63.5887C15.4016 63.4496 17.3054 60.6222 16.7946 58.8145Z" fill="#2F2E41"/>
<path d="M202.014 1.60858C201.093 1.66052 200.204 1.96756 199.448 2.49528C198.692 3.02301 198.098 3.75054 197.733 4.59631C196.663 7.17913 198.041 10.213 200.11 12.0964C202.179 13.9799 204.837 15.0564 207.251 16.4715C210.495 18.3721 213.409 21.0105 215.032 24.3973C216.655 27.7841 216.827 31.9794 214.92 35.2149C213.149 38.218 209.93 40.0154 206.859 41.673" stroke="#3F3D56" stroke-miterlimit="10"/>
<path d="M204.741 3.66699C206.829 3.66699 208.522 2.84611 208.522 1.83349C208.522 0.820884 206.829 0 204.741 0C202.652 0 200.959 0.820884 200.959 1.83349C200.959 2.84611 202.652 3.66699 204.741 3.66699Z" fill="#FFD500"/>
<path d="M207.766 15.7465C209.854 15.7465 211.547 14.9256 211.547 13.913C211.547 12.9004 209.854 12.0795 207.766 12.0795C205.678 12.0795 203.984 12.9004 203.984 13.913C203.984 14.9256 205.678 15.7465 207.766 15.7465Z" fill="#FFD500"/>
<path d="M200.851 17.6879C202.94 17.6879 204.633 16.867 204.633 15.8544C204.633 14.8418 202.94 14.0209 200.851 14.0209C198.763 14.0209 197.07 14.8418 197.07 15.8544C197.07 16.867 198.763 17.6879 200.851 17.6879Z" fill="#FFD500"/>
<path d="M211.656 27.826C213.744 27.826 215.437 27.0051 215.437 25.9925C215.437 24.9799 213.744 24.159 211.656 24.159C209.567 24.159 207.874 24.9799 207.874 25.9925C207.874 27.0051 209.567 27.826 211.656 27.826Z" fill="#FFD500"/>
<path d="M219.219 27.826C221.307 27.826 223 27.0051 223 25.9925C223 24.9799 221.307 24.159 219.219 24.159C217.13 24.159 215.437 24.9799 215.437 25.9925C215.437 27.0051 217.13 27.826 219.219 27.826Z" fill="#FFD500"/>
</g>
<defs>
<clipPath id="clip0">
<rect width="223" height="160" fill="white"/>
</clipPath>
</defs>
</svg>
